<svg width="16" height="16" viewBox="0 0 16 16" fill="none" xmlns="http://www.w3.org/2000/svg">
<path d="M1.60241 4.70721L8.00001 7.90561L14.3976 4.70721C14.3739 4.29957 14.1953 3.9164 13.8983 3.63619C13.6012 3.35598 13.2083 3.19994 12.8 3.20001H3.20001C2.79167 3.19994 2.39876 3.35598 2.10175 3.63619C1.80473 3.9164 1.62609 4.29957 1.60241 4.70721Z" fill="#1E1F26"/>
<path d="M14.4 6.49441L8.00001 9.69441L1.60001 6.49441V11.2C1.60001 11.6244 1.76858 12.0313 2.06864 12.3314C2.36869 12.6314 2.77566 12.8 3.20001 12.8H12.8C13.2244 12.8 13.6313 12.6314 13.9314 12.3314C14.2314 12.0313 14.4 11.6244 14.4 11.2V6.49441Z" fill="#1E1F26"/>
</svg>
